<svg xmlns="http://www.w3.org/2000/svg" viewBox="0 0 128 128"><path fill="#90A4AE" d="M60 8h8a4 4 0 0 1 4 4v104a4 4 0 0 1 -4 4h-8a4 4 0 0 1 -4 -4v-104a4 4 0 0 1 4 -4Z"/><path fill="#546E7A" d="M68 14h10a2 2 0 0 1 2 2v2a2 2 0 0 1 -2 2h-10a2 2 0 0 1 -2 -2v-2a2 2 0 0 1 2 -2ZM50 24h10a2 2 0 0 1 2 2v2a2 2 0 0 1 -2 2h-10a2 2 0 0 1 -2 -2v-2a2 2 0 0 1 2 -2ZM68 34h10a2 2 0 0 1 2 2v2a2 2 0 0 1 -2 2h-10a2 2 0 0 1 -2 -2v-2a2 2 0 0 1 2 -2ZM50 44h10a2 2 0 0 1 2 2v2a2 2 0 0 1 -2 2h-10a2 2 0 0 1 -2 -2v-2a2 2 0 0 1 2 -2ZM68 54h10a2 2 0 0 1 2 2v2a2 2 0 0 1 -2 2h-10a2 2 0 0 1 -2 -2v-2a2 2 0 0 1 2 -2ZM50 64h10a2 2 0 0 1 2 2v2a2 2 0 0 1 -2 2h-10a2 2 0 0 1 -2 -2v-2a2 2 0 0 1 2 -2ZM68 74h10a2 2 0 0 1 2 2v2a2 2 0 0 1 -2 2h-10a2 2 0 0 1 -2 -2v-2a2 2 0 0 1 2 -2Z"/><path fill="#455A64" d="M56 82h16a6 6 0 0 1 6 6v4a6 6 0 0 1 -6 6h-16a6 6 0 0 1 -6 -6v-4a6 6 0 0 1 6 -6Z"/><path fill="#78909C" d="M64 96h0a6 6 0 0 1 6 6v12a6 6 0 0 1 -6 6h0a6 6 0 0 1 -6 -6v-12a6 6 0 0 1 6 -6Z"/></svg>
